Coordinates
version=1
nRows=24
nColumns=22
inDegrees=yes

Units are S.I. units (second, meters, Newtons, ...)
If the header above contains a line with 'inDegrees', this indicates whether rotational values are in degrees (yes) or radians (no).

endheader
time	pelvis_tilt	pelvis_list	pelvis_rotation	pelvis_tx	pelvis_ty	pelvis_tz	hip_flexion_r	hip_adduction_r	hip_rotation_r	knee_angle_r	ankle_angle_r	subtalar_angle_r	hip_flexion_l	hip_adduction_l	hip_rotation_l	knee_angle_l	ankle_angle_l	subtalar_angle_l	lumbar_extension	lumbar_bending	lumbar_rotation
      2.98000000	      3.69922111	      1.11881850	     19.38029212	     -0.24232605	      0.89353039	      0.68373658	     23.03574494	     -4.12440882	     -1.86931494	    -10.24232296	     -2.71956073	     10.61765107	    -17.51570867	      2.52146512	      5.14896754	    -18.99007642	     17.08814228	     -5.13410081	    -10.11358639	     -5.46679098	     -8.38824339
      2.99000000	      3.81785026	      0.68137176	     19.76159460	     -0.23012790	      0.89252726	      0.68192428	     23.23218106	     -3.43426360	     -0.96044363	    -12.06003269	     -3.17350205	     10.08488727	    -17.84314812	      1.77708815	      5.12645804	    -19.83715387	     16.67186992	     -4.78883546	     -9.95790942	     -4.97360105	     -8.09156916
      3.00000000	      3.93296648	      0.14737452	     20.10595080	     -0.21767849	      0.89171191	      0.68016904	     23.38478841	     -2.60166641	     -0.07297674	    -13.72876990	     -3.73323609	      9.73840940	    -18.01927528	      0.94135613	      4.98246102	    -20.89594753	     16.05003065	     -4.54272739	     -9.72702328	     -4.38222384	     -7.74522481
      3.01000000	      3.98912144	     -0.42461200	     20.43024164	     -0.20505806	      0.89102256	      0.67841823	     23.61538683	     -1.73729047	      0.59842623	    -15.37776431	     -4.31176147	      9.20097479	    -18.01441872	      0.09753291	      4.83584682	    -22.13489600	     15.22818882	     -3.97265274	     -9.39068532	     -3.77925317	     -7.36537503
      3.02000000	      4.06147580	     -1.03147609	     20.74631686	     -0.19235233	      0.89059758	      0.67659863	     23.78860764	     -0.84412079	      1.11394078	    -16.88822457	     -4.91915886	      8.84761953	    -17.84323479	     -0.77362597	      4.62626560	    -23.65789732	     14.15714740	     -3.59018204	     -9.04415581	     -3.12492029	     -6.92460776
      3.03000000	      4.08704107	     -1.61296391	     21.06652156	     -0.17962791	      0.89034782	      0.67467036	     24.01690435	     -0.03136007	      1.37681238	    -18.40997465	     -5.37360580	      8.46419209	    -17.46155644	     -1.59231556	      4.40921027	    -25.43766321	     12.78670622	     -3.04285740	     -8.64859668	     -2.50937149	     -6.51848009
      3.04000000	      4.16017501	     -2.17697676	     21.38768345	     -0.16696640	      0.89040184	      0.67260182	     24.15723372	      0.73147705	      1.43249680	    -19.85650777	     -5.73325627	      8.23701148	    -16.92961115	     -2.39907438	      4.12141530	    -27.51799641	     11.16526391	     -2.68122993	     -8.31681635	     -1.87849187	     -6.09479662
      3.05000000	      4.24392735	     -2.70799987	     21.72516672	     -0.15442454	      0.89070550	      0.67034315	     24.23781934	      1.40076914	      1.26385146	    -21.24297723	     -5.85702449	      8.08292300	    -16.21609157	     -3.16613103	      3.82343675	    -29.86575400	      9.23042602	     -2.37476512	     -8.01399195	     -1.25984039	     -5.67515748
      3.06000000	      4.38878113	     -3.20675602	     22.08564957	     -0.14208262	      0.89131253	      0.66791017	     24.17811602	      1.99884766	      0.91326402	    -22.51706694	     -5.75913964	      8.00791116	    -15.36454090	     -3.92428661	      3.49480897	    -32.46243866	      7.02227910	     -2.21095702	     -7.80822147	     -0.63504238	     -5.26333446
      3.07000000	      4.59899850	     -3.68986520	     22.47344631	     -0.12999886	      0.89220396	      0.66531866	     23.95406631	      2.55227221	      0.41130914	    -23.62241155	     -5.45976000	      7.97936977	    -14.37799345	     -4.69853020	      3.14674550	    -35.27118069	      4.59248074	     -2.20740444	     -7.69749026	      0.01745322	     -4.85161077
      3.08000000	      4.85249829	     -4.17218859	     22.88926884	     -0.11821311	      0.89330716	      0.66260617	     23.59308068	      3.07868768	     -0.22260289	    -24.54938978	     -4.98328928	      7.96397904	    -13.24034939	     -5.50140841	      2.79839666	    -38.24815720	      2.03554363	     -2.43069984	     -7.65186618	      0.69634469	     -4.40610883
      3.09000000	      5.16191782	     -4.64894755	     23.34587215	     -0.10679528	      0.89463781	      0.65980405	     23.05494232	      3.60273649	     -0.87925730	    -25.23498228	     -4.39654947	      7.95032705	    -11.97278798	     -6.33787155	      2.48484838	    -41.35309981	     -0.58117913	     -2.93797726	     -7.69279170	      1.40167745	     -3.96974179
      3.10000000	      5.52246214	     -5.13558993	     23.84914192	     -0.09575202	      0.89614799	      0.65691491	     22.37075041	      4.14072561	     -1.59743289	    -25.69963749	     -3.79462094	      7.95178488	    -10.59075650	     -7.21746957	      2.24346035	    -44.52622958	     -3.14721805	     -3.59341684	     -7.80150841	      2.14555153	     -3.49421141
      3.11000000	      5.86891687	     -5.59994239	     24.38850794	     -0.08512412	      0.89774194	      0.65398781	     21.60414622	      4.65908798	     -2.27965764	    -25.95327699	     -3.16228051	      7.95020836	     -9.04848777	     -8.07666405	      2.07868023	    -47.73652768	     -5.59128450	     -4.43974872	     -7.92337690	      2.85876328	     -2.99871150
      3.12000000	      6.17384390	     -6.02376883	     24.95446416	     -0.07491588	      0.89937181	      0.65103509	     20.79940356	      5.14114977	     -2.88421925	    -26.03933274	     -2.51826354	      7.94248042	     -7.35217318	     -8.87508205	      1.98940198	    -50.92707295	     -7.83868498	     -5.38105322	     -8.03532109	      3.50953479	     -2.48297119
      3.13000000	      6.43134183	     -6.40081109	     25.54652004	     -0.06511153	      0.90101328	      0.64805618	     19.98590776	      5.57506279	     -3.45202979	    -26.00331796	     -1.92601727	      7.92501486	     -5.52693800	     -9.59921386	      1.95896233	    -54.04123114	     -9.79854585	     -6.20551579	     -8.13075235	      4.08585056	     -1.94616286
      3.14000000	      6.62153592	     -6.71576604	     26.15869186	     -0.05568483	      0.90265264	      0.64504994	     19.17546970	      5.94352734	     -3.95695332	    -25.84675613	     -1.36457900	      7.88365586	     -3.59034176	    -10.20987347	      1.98340563	    -57.02198592	    -11.39163172	     -6.83493574	     -8.19279500	      4.55906235	     -1.37841009
      3.15000000	      6.75409997	     -6.94851808	     26.78544469	     -0.04658841	      0.90430898	      0.64198461	     18.36140608	      6.22942643	     -4.40572536	    -25.60649529	     -0.84229706	      7.81316927	     -1.59935683	    -10.68855409	      2.01598545	    -59.80990097	    -12.52512780	     -7.17515817	     -8.23468957	      4.91661607	     -0.78987404
      3.16000000	      6.84975425	     -7.08371904	     27.42011384	     -0.03776463	      0.90604573	      0.63886054	     17.50471754	      6.43042320	     -4.79704837	    -25.26985274	     -0.38217699	      7.72005818	      0.38461989	    -11.02788060	      2.02161601	    -62.35692424	    -13.18448823	     -7.22148766	     -8.28543004	      5.14943899	     -0.19384345
      3.17000000	      6.87325257	     -7.13101136	     28.03752008	     -0.02919914	      0.90775904	      0.63570715	     16.68335918	      6.53398709	     -5.14007965	    -24.92402487	      0.08811812	      7.58313396	      2.38082702	    -11.22861162	      1.93730632	    -64.66147352	    -13.29755222	     -7.06084531	     -8.30894396	      5.25218466	      0.41691210
      3.18000000	      6.84690909	     -7.06864898	     28.62249206	     -0.02083043	      0.90953973	      0.63248486	     15.84262963	      6.52826193	     -5.43004780	    -24.53914794	      0.52695704	      7.41547379	      4.31297488	    -11.27305865	      1.73753925	    -66.67171327	    -12.95756675	     -6.71753445	     -8.33683458	      5.21725400	      1.06042178
      3.19000000	      6.78958515	     -6.90228570	     29.16054382	     -0.01263336	      0.91139928	      0.62920107	     14.96946190	      6.42677463	     -5.65970303	    -24.12812656	      0.94280601	      7.23676304	      6.14654817	    -11.18074357	      1.39517135	    -68.37795892	    -12.28557742	     -6.28614476	     -8.39107036	      5.06293123	      1.72940564
      3.20000000	      6.77164201	     -6.58676385	     29.63840847	     -0.00455496	      0.91347921	      0.62581850	     13.95037659	      6.22822801	     -5.77655028	    -23.66263211	      1.37141169	      7.17234277	      7.75034005	    -10.96031319	      0.86255094	    -69.73720729	    -11.37687049	     -6.01847066	     -8.57200233	      4.78774134	      2.43156328
      3.21000000	      6.58662383	     -6.27470510	     30.06344241	      0.00326403	      0.91530675	      0.62240681	     13.13802265	      5.93483913	     -5.92227639	    -23.26383473	      1.73238060	      6.91401301	      9.46485519	    -10.62476819	      0.24075986	    -70.85379923	    -10.40518758	     -5.54737601	     -8.59607124	      4.44015337	      3.15366453
